<svg width="700" height="860" viewBox="0 0 700 860" fill="none" xmlns="http://www.w3.org/2000/svg">
  <rect width="700" height="860" rx="24" fill="#F8F8F6"/>
  <rect x="46" y="46" width="608" height="768" rx="20" fill="white"/>
  <rect x="84" y="92" width="290" height="24" rx="12" fill="#27292F"/>
  <rect x="84" y="127" width="220" height="10" rx="5" fill="#A3A7B2"/>
  <rect x="84" y="161" width="532" height="1" fill="#D9DBE1"/>
  <rect x="84" y="194" width="100" height="10" rx="5" fill="#555B67"/>
  <rect x="84" y="216" width="530" height="10" rx="5" fill="#D8DCE6"/>
  <rect x="84" y="236" width="502" height="10" rx="5" fill="#D8DCE6"/>
  <rect x="84" y="256" width="524" height="10" rx="5" fill="#D8DCE6"/>
  <rect x="84" y="296" width="144" height="10" rx="5" fill="#555B67"/>
  <rect x="84" y="318" width="536" height="10" rx="5" fill="#D8DCE6"/>
  <rect x="84" y="338" width="512" height="10" rx="5" fill="#D8DCE6"/>
  <rect x="84" y="358" width="488" height="10" rx="5" fill="#D8DCE6"/>
  <rect x="84" y="406" width="124" height="10" rx="5" fill="#555B67"/>
  <rect x="84" y="428" width="240" height="10" rx="5" fill="#D8DCE6"/>
  <rect x="332" y="428" width="240" height="10" rx="5" fill="#D8DCE6"/>
  <rect x="84" y="448" width="240" height="10" rx="5" fill="#D8DCE6"/>
  <rect x="332" y="448" width="240" height="10" rx="5" fill="#D8DCE6"/>
</svg>

