<svg width="700" height="860" viewBox="0 0 700 860" fill="none" xmlns="http://www.w3.org/2000/svg">
  <rect width="700" height="860" rx="24" fill="#EEF2FB"/>
  <rect x="40" y="40" width="620" height="780" rx="22" fill="white"/>
  <rect x="64" y="64" width="180" height="732" rx="18" fill="#F2F4F9"/>
  <rect x="86" y="94" width="130" height="18" rx="9" fill="#6E7FAD"/>
  <rect x="86" y="122" width="104" height="10" rx="5" fill="#A2AEC9"/>
  <rect x="86" y="168" width="95" height="8" rx="4" fill="#8F9CB9"/>
  <rect x="86" y="184" width="132" height="8" rx="4" fill="#C0C9DE"/>
  <rect x="86" y="200" width="124" height="8" rx="4" fill="#C0C9DE"/>
  <rect x="86" y="252" width="95" height="8" rx="4" fill="#8F9CB9"/>
  <rect x="86" y="268" width="130" height="8" rx="4" fill="#C0C9DE"/>
  <rect x="86" y="284" width="118" height="8" rx="4" fill="#C0C9DE"/>
  <rect x="272" y="90" width="130" height="12" rx="6" fill="#7C8BB3"/>
  <rect x="272" y="116" width="360" height="10" rx="5" fill="#D1D9EA"/>
  <rect x="272" y="136" width="330" height="10" rx="5" fill="#D1D9EA"/>
  <rect x="272" y="156" width="345" height="10" rx="5" fill="#D1D9EA"/>
  <rect x="272" y="212" width="150" height="12" rx="6" fill="#7C8BB3"/>
  <rect x="272" y="238" width="352" height="10" rx="5" fill="#D1D9EA"/>
  <rect x="272" y="258" width="340" height="10" rx="5" fill="#D1D9EA"/>
  <rect x="272" y="278" width="362" height="10" rx="5" fill="#D1D9EA"/>
  <rect x="272" y="334" width="120" height="12" rx="6" fill="#7C8BB3"/>
  <rect x="272" y="360" width="355" height="10" rx="5" fill="#D1D9EA"/>
  <rect x="272" y="380" width="328" height="10" rx="5" fill="#D1D9EA"/>
  <rect x="272" y="400" width="344" height="10" rx="5" fill="#D1D9EA"/>
</svg>

